<?xml version="1.0" encoding="utf-8"?>
<!-- Generator: Adobe Illustrator 18.1.1, SVG Export Plug-In . SVG Version: 6.00 Build 0)  -->
<svg version="1.1" id="Layer_1" xmlns="http://www.w3.org/2000/svg" xmlns:xlink="http://www.w3.org/1999/xlink" x="0px" y="0px"
	 viewBox="0 0 216.5 57.8" enable-background="new 0 0 216.5 57.8" xml:space="preserve">
<g>
	<path fill="#1C4178" d="M9.7,27.9c1.2,5.1,3,9.6,5.4,13.2c0.5,0.8,1,1.5,1.6,2.2l30.9-24.1L9.7,27.9z M48.7,6.1
		c0,0,4.2,38.5-21.2,46.7C2.2,44.6,6.3,6.1,6.3,6.1H48.7z"/>
	<path fill="#1C4178" d="M67.1,19.8v4.8h4.4c0.8,0,1.4-0.1,1.8-0.3c0.8-0.4,1.2-1.1,1.2-2.3c0-0.9-0.4-1.6-1.2-1.9
		c-0.4-0.2-1-0.3-1.8-0.3H67.1z M67.1,12.8v4h4.4c0.8,0,1.4-0.1,1.9-0.4c0.5-0.3,0.7-0.8,0.7-1.6c0-0.8-0.3-1.4-1-1.7
		c-0.6-0.2-1.3-0.3-2.1-0.3H67.1z M76.9,11.6c0.6,0.8,0.8,1.7,0.8,2.8c0,1.1-0.3,2-0.8,2.7c-0.3,0.4-0.8,0.7-1.4,1
		c0.9,0.3,1.6,0.9,2.1,1.6c0.5,0.7,0.7,1.6,0.7,2.6c0,1.1-0.3,2-0.8,2.9c-0.3,0.6-0.8,1-1.3,1.4c-0.6,0.4-1.3,0.7-2,0.9
		c-0.8,0.2-1.6,0.2-2.6,0.2h-8.1v-18h8.7C74.5,9.7,76,10.3,76.9,11.6"/>
	<path fill="#1C4178" d="M87.7,14c0,0,0.1,0,0.3,0v3.6c-0.2,0-0.4,0-0.6,0c-0.2,0-0.3,0-0.4,0c-1.4,0-2.3,0.5-2.8,1.4
		c-0.3,0.5-0.4,1.3-0.4,2.4v6.4h-3.5V14.4h3.3v2.3c0.5-0.9,1-1.5,1.4-1.8c0.7-0.5,1.5-0.8,2.5-0.8C87.6,14,87.7,14,87.7,14"/>
	<path fill="#1C4178" d="M90.1,14.4h3.5v13.3h-3.5V14.4z M93.6,12.8h-3.5V9.5h3.5V12.8z"/>
	<path fill="#1C4178" d="M99.2,23.4c0.1,0.6,0.2,1.1,0.5,1.3c0.4,0.5,1.2,0.7,2.4,0.7c0.7,0,1.2-0.1,1.6-0.3
		c0.4-0.2,0.6-0.5,0.6-0.9c0-0.4-0.2-0.7-0.5-0.9c-0.3-0.2-1.5-0.6-3.7-1.1c-1.5-0.4-2.6-0.8-3.2-1.4c-0.6-0.6-0.9-1.4-0.9-2.4
		c0-1.2,0.5-2.3,1.5-3.2c1-0.9,2.3-1.3,4.1-1.3c1.7,0,3,0.3,4.1,1c1.1,0.7,1.7,1.8,1.8,3.4H104c0-0.4-0.2-0.8-0.4-1.1
		c-0.4-0.5-1-0.7-2-0.7c-0.8,0-1.3,0.1-1.6,0.4c-0.3,0.2-0.5,0.5-0.5,0.8c0,0.4,0.2,0.7,0.5,0.9c0.3,0.2,1.6,0.5,3.6,1
		c1.4,0.3,2.4,0.8,3.1,1.5c0.7,0.7,1,1.5,1,2.5c0,1.3-0.5,2.4-1.5,3.2c-1,0.8-2.5,1.3-4.6,1.3c-2.1,0-3.7-0.4-4.7-1.3
		c-1-0.9-1.5-2-1.5-3.4H99.2z"/>
	<path fill="#1C4178" d="M108.6,17v-2.5h1.9v-3.7h3.5v3.7h2.2V17h-2.2V24c0,0.5,0.1,0.9,0.2,1c0.1,0.1,0.6,0.2,1.3,0.2
		c0.1,0,0.2,0,0.3,0c0.1,0,0.2,0,0.3,0v2.6l-1.7,0.1c-1.6,0.1-2.8-0.2-3.4-0.9c-0.4-0.4-0.6-1-0.6-1.8V17H108.6z"/>
	<path fill="#1C4178" d="M126.2,24.1c0.5-0.7,0.8-1.8,0.8-3.1c0-1.3-0.3-2.4-0.8-3.1c-0.5-0.7-1.3-1.1-2.4-1.1s-1.8,0.4-2.4,1.1
		c-0.6,0.7-0.8,1.8-0.8,3.1c0,1.3,0.3,2.4,0.8,3.1c0.6,0.7,1.3,1.1,2.4,1.1S125.6,24.9,126.2,24.1 M128.9,26.1
		c-1.1,1.4-2.8,2.1-5.1,2.1c-2.3,0-4-0.7-5.1-2.1c-1.1-1.4-1.7-3.1-1.7-5c0-1.9,0.6-3.6,1.7-5c1.1-1.4,2.8-2.1,5.1-2.1
		c2.3,0,4,0.7,5.1,2.1c1.1,1.4,1.7,3.1,1.7,5C130.6,23,130.1,24.7,128.9,26.1"/>
	<rect x="132.2" y="9.7" fill="#1C4178" width="3.5" height="18"/>
	<path fill="#1C4178" d="M148.1,22.1c0.1,0.8,0.3,1.4,0.7,1.8c0.6,0.7,1.7,1.1,3.2,1.1c0.9,0,1.6-0.1,2.2-0.3
		c1.1-0.4,1.6-1.1,1.6-2.1c0-0.6-0.3-1.1-0.8-1.4c-0.5-0.3-1.4-0.6-2.5-0.8l-2-0.4c-1.9-0.4-3.2-0.9-4-1.4c-1.2-0.8-1.8-2.1-1.8-3.9
		c0-1.6,0.6-3,1.8-4c1.2-1.1,2.9-1.6,5.2-1.6c1.9,0,3.6,0.5,4.9,1.5c1.4,1,2.1,2.5,2.1,4.4h-3.6c-0.1-1.1-0.6-1.9-1.5-2.3
		c-0.6-0.3-1.4-0.5-2.2-0.5c-1,0-1.8,0.2-2.4,0.6c-0.6,0.4-0.9,0.9-0.9,1.6c0,0.6,0.3,1.1,0.9,1.4c0.4,0.2,1.2,0.5,2.4,0.7l3.2,0.7
		c1.4,0.3,2.4,0.8,3.1,1.3c1.1,0.8,1.6,2.1,1.6,3.7c0,1.6-0.6,3-1.9,4.1c-1.3,1.1-3.1,1.6-5.4,1.6c-2.4,0-4.2-0.5-5.6-1.6
		c-1.4-1.1-2-2.5-2-4.4H148.1z"/>
	<path fill="#1C4178" d="M159.9,17v-2.5h1.9v-3.7h3.5v3.7h2.2V17h-2.2V24c0,0.5,0.1,0.9,0.2,1c0.1,0.1,0.6,0.2,1.3,0.2
		c0.1,0,0.2,0,0.3,0c0.1,0,0.2,0,0.3,0v2.6l-1.7,0.1c-1.6,0.1-2.8-0.2-3.4-0.9c-0.4-0.4-0.6-1-0.6-1.8V17H159.9z"/>
	<path fill="#1C4178" d="M176.6,14c0,0,0.1,0,0.3,0v3.6c-0.2,0-0.4,0-0.6,0c-0.2,0-0.3,0-0.4,0c-1.4,0-2.3,0.5-2.8,1.4
		c-0.3,0.5-0.4,1.3-0.4,2.4v6.4h-3.5V14.4h3.3v2.3c0.5-0.9,1-1.5,1.4-1.8c0.7-0.5,1.5-0.8,2.5-0.8C176.5,14,176.5,14,176.6,14"/>
	<path fill="#1C4178" d="M181.9,17.6c-0.5,0.5-0.8,1.2-0.9,2.1h6c-0.1-0.9-0.4-1.6-0.9-2.1c-0.6-0.5-1.2-0.7-2.1-0.7
		C183.1,16.9,182.4,17.1,181.9,17.6 M187.1,14.6c0.9,0.4,1.7,1.1,2.3,2c0.5,0.8,0.9,1.7,1.1,2.8c0.1,0.6,0.1,1.5,0.1,2.6h-9.7
		c0.1,1.3,0.5,2.3,1.4,2.8c0.5,0.3,1.2,0.5,1.9,0.5c0.8,0,1.4-0.2,1.9-0.6c0.3-0.2,0.5-0.5,0.7-0.9h3.6c-0.1,0.8-0.5,1.6-1.3,2.4
		c-1.2,1.3-2.9,1.9-5,1.9c-1.8,0-3.3-0.5-4.7-1.6c-1.4-1.1-2-2.9-2-5.3c0-2.3,0.6-4.1,1.8-5.3c1.2-1.2,2.8-1.9,4.8-1.9
		C185.1,14,186.2,14.2,187.1,14.6"/>
	<path fill="#1C4178" d="M195.8,17.6c-0.5,0.5-0.8,1.2-0.9,2.1h6c-0.1-0.9-0.4-1.6-0.9-2.1c-0.6-0.5-1.2-0.7-2.1-0.7
		C197,16.9,196.3,17.1,195.8,17.6 M201,14.6c0.9,0.4,1.7,1.1,2.3,2c0.5,0.8,0.9,1.7,1.1,2.8c0.1,0.6,0.1,1.5,0.1,2.6h-9.7
		c0.1,1.3,0.5,2.3,1.4,2.8c0.5,0.3,1.2,0.5,1.9,0.5c0.8,0,1.4-0.2,1.9-0.6c0.3-0.2,0.5-0.5,0.7-0.9h3.6c-0.1,0.8-0.5,1.6-1.3,2.4
		c-1.2,1.3-2.9,1.9-5,1.9c-1.8,0-3.3-0.5-4.7-1.6c-1.4-1.1-2-2.9-2-5.3c0-2.3,0.6-4.1,1.8-5.3c1.2-1.2,2.8-1.9,4.8-1.9
		C199.1,14,200.1,14.2,201,14.6"/>
	<path fill="#1C4178" d="M204.4,17v-2.5h1.9v-3.7h3.5v3.7h2.2V17h-2.2V24c0,0.5,0.1,0.9,0.2,1c0.1,0.1,0.6,0.2,1.3,0.2
		c0.1,0,0.2,0,0.3,0c0.1,0,0.2,0,0.3,0v2.6l-1.7,0.1c-1.6,0.1-2.8-0.2-3.4-0.9c-0.4-0.4-0.6-1-0.6-1.8V17H204.4z"/>
	<polygon fill="#1C4178" points="63.5,49.3 63.5,33.1 65.9,33.1 71.2,47.4 71.2,47.4 76.5,33.1 78.8,33.1 78.8,49.3 77.3,49.3 
		77.3,34.8 77.2,34.8 71.9,49.3 70.5,49.3 65.1,34.8 65.1,34.8 65.1,49.3 	"/>
	<path fill="#1C4178" d="M90.4,43.5c0-0.7-0.1-1.3-0.2-1.9c-0.2-0.6-0.4-1.1-0.7-1.6c-0.3-0.4-0.7-0.8-1.2-1
		c-0.5-0.3-1.1-0.4-1.8-0.4c-0.7,0-1.3,0.1-1.8,0.4c-0.5,0.3-0.9,0.6-1.2,1.1c-0.3,0.5-0.5,1-0.7,1.6c-0.2,0.6-0.2,1.2-0.2,1.8
		c0,0.7,0.1,1.4,0.3,2c0.2,0.6,0.4,1.1,0.8,1.6c0.3,0.4,0.7,0.8,1.2,1c0.5,0.2,1.1,0.4,1.7,0.4c0.7,0,1.3-0.1,1.8-0.4
		c0.5-0.3,0.9-0.7,1.2-1.1c0.3-0.5,0.5-1,0.7-1.6C90.3,44.7,90.4,44.1,90.4,43.5 M86.4,49.6c-0.8,0-1.5-0.2-2.1-0.4
		c-0.7-0.3-1.2-0.6-1.7-1.2c-0.5-0.5-0.9-1.2-1.2-1.9c-0.3-0.8-0.4-1.7-0.4-2.7c0-0.9,0.1-1.7,0.3-2.4c0.2-0.7,0.6-1.4,1-2
		c0.5-0.6,1-1,1.7-1.3c0.7-0.3,1.5-0.5,2.4-0.5c0.9,0,1.7,0.2,2.4,0.5c0.7,0.3,1.2,0.8,1.7,1.3c0.5,0.5,0.8,1.2,1,2
		c0.2,0.8,0.3,1.6,0.3,2.4c0,0.9-0.1,1.8-0.4,2.5c-0.3,0.8-0.6,1.4-1.1,1.9c-0.5,0.5-1,1-1.7,1.3C87.9,49.5,87.2,49.6,86.4,49.6"/>
	<path fill="#1C4178" d="M97.9,49.3c-0.2,0-0.4,0.1-0.7,0.2c-0.3,0.1-0.6,0.1-0.9,0.1c-0.7,0-1.2-0.2-1.5-0.5
		c-0.4-0.3-0.5-0.9-0.5-1.8v-8.6h-1.6v-1.1h1.6v-3.3h1.4v3.3h2.2v1.1h-2.2v8c0,0.3,0,0.5,0,0.7c0,0.2,0.1,0.4,0.1,0.5
		c0.1,0.1,0.2,0.2,0.4,0.3c0.2,0.1,0.4,0.1,0.7,0.1c0.2,0,0.4,0,0.6,0c0.2,0,0.4-0.1,0.6-0.1V49.3z"/>
	<path fill="#1C4178" d="M108.3,43.5c0-0.7-0.1-1.3-0.2-1.9c-0.2-0.6-0.4-1.1-0.7-1.6c-0.3-0.4-0.7-0.8-1.2-1
		c-0.5-0.3-1.1-0.4-1.8-0.4c-0.7,0-1.3,0.1-1.8,0.4c-0.5,0.3-0.9,0.6-1.2,1.1c-0.3,0.5-0.5,1-0.7,1.6c-0.2,0.6-0.2,1.2-0.2,1.8
		c0,0.7,0.1,1.4,0.3,2c0.2,0.6,0.4,1.1,0.8,1.6c0.3,0.4,0.7,0.8,1.2,1c0.5,0.2,1.1,0.4,1.7,0.4c0.7,0,1.3-0.1,1.8-0.4
		c0.5-0.3,0.9-0.7,1.2-1.1c0.3-0.5,0.5-1,0.7-1.6C108.2,44.7,108.3,44.1,108.3,43.5 M104.3,49.6c-0.8,0-1.5-0.2-2.1-0.4
		c-0.7-0.3-1.2-0.6-1.7-1.2c-0.5-0.5-0.9-1.2-1.2-1.9c-0.3-0.8-0.4-1.7-0.4-2.7c0-0.9,0.1-1.7,0.3-2.4c0.2-0.7,0.6-1.4,1-2
		c0.5-0.6,1-1,1.7-1.3c0.7-0.3,1.5-0.5,2.4-0.5c0.9,0,1.7,0.2,2.4,0.5c0.7,0.3,1.2,0.8,1.7,1.3c0.5,0.5,0.8,1.2,1,2
		c0.2,0.8,0.3,1.6,0.3,2.4c0,0.9-0.1,1.8-0.4,2.5c-0.3,0.8-0.6,1.4-1.1,1.9c-0.5,0.5-1,1-1.7,1.3C105.9,49.5,105.1,49.6,104.3,49.6"
		/>
	<path fill="#1C4178" d="M113.2,49.3h-1.4V37.6h1.4v2.2h0c0.4-0.9,0.9-1.6,1.5-2c0.6-0.4,1.4-0.6,2.4-0.6v1.5
		c-0.8,0-1.4,0.1-1.9,0.4c-0.5,0.3-0.9,0.6-1.2,1c-0.3,0.4-0.5,1-0.6,1.5c-0.1,0.6-0.2,1.2-0.2,1.9V49.3z"/>
	<path fill="#1C4178" d="M119.6,45.6c0.2,1,0.6,1.7,1.1,2.1c0.5,0.4,1.3,0.6,2.4,0.6c0.5,0,0.9-0.1,1.3-0.2c0.4-0.1,0.7-0.3,0.9-0.5
		c0.2-0.2,0.4-0.4,0.5-0.7c0.1-0.3,0.2-0.5,0.2-0.8c0-0.6-0.2-1-0.6-1.3c-0.4-0.3-0.8-0.5-1.4-0.7c-0.6-0.2-1.2-0.3-1.8-0.4
		c-0.6-0.1-1.2-0.3-1.8-0.5c-0.6-0.2-1-0.5-1.4-1c-0.4-0.4-0.6-1-0.6-1.8c0-1,0.4-1.8,1.1-2.4c0.7-0.6,1.7-0.9,3-0.9
		c1.3,0,2.3,0.3,3.1,0.8c0.8,0.6,1.3,1.5,1.4,2.8h-1.4c-0.1-0.9-0.5-1.5-1-1.9c-0.6-0.4-1.3-0.6-2.1-0.6c-0.9,0-1.5,0.2-2,0.6
		c-0.5,0.4-0.7,0.9-0.7,1.5c0,0.5,0.2,0.9,0.6,1.2c0.4,0.3,0.8,0.5,1.4,0.7c0.6,0.2,1.2,0.3,1.8,0.5c0.6,0.1,1.2,0.3,1.8,0.6
		c0.6,0.2,1,0.6,1.4,1c0.4,0.4,0.6,1,0.6,1.8c0,0.6-0.1,1-0.4,1.5c-0.2,0.4-0.6,0.8-1,1.1c-0.4,0.3-0.9,0.5-1.5,0.6
		c-0.6,0.1-1.2,0.2-1.9,0.2c-0.7,0-1.3-0.1-1.8-0.3c-0.5-0.2-1-0.5-1.4-0.8c-0.4-0.4-0.7-0.8-0.9-1.3c-0.2-0.5-0.3-1-0.4-1.6H119.6z
		"/>
</g>
</svg>
